<svg width="24" height="19" viewBox="0 0 24 19" fill="none" xmlns="http://www.w3.org/2000/svg">
<path d="M24 9.41159V9.69283C23.8988 9.86674 23.8158 10.0552 23.6934 10.2127C22.9149 11.213 22.0547 12.1397 21.1182 12.9932C19.4902 14.4763 17.7086 15.7218 15.6349 16.5093C14.2605 17.0314 12.8383 17.2794 11.3679 17.1796C9.56606 17.0572 7.91 16.4568 6.358 15.5624C3.99367 14.1993 2.02777 12.3768 0.33515 10.2497C0.201559 10.0814 0.110623 9.87939 0 9.69283V9.41159C0.101248 9.23769 0.184215 9.04925 0.306557 8.89176C1.08467 7.89099 1.94481 6.96476 2.88182 6.11119C4.50976 4.62856 6.29144 3.38218 8.36515 2.59516C9.7395 2.07345 11.1617 1.82502 12.6321 1.92486C14.4339 2.0472 16.09 2.64813 17.642 3.54202C19.9862 4.89199 21.9361 6.69805 23.6222 8.79895C23.7713 8.98457 23.8753 9.20675 24 9.41159V9.41159ZM1.80231 9.55221C1.88199 9.64643 1.94246 9.72752 2.01277 9.79924C2.74307 10.5478 3.4415 11.3311 4.21304 12.0342C5.69567 13.3846 7.34376 14.4866 9.26091 15.141C10.4135 15.5343 11.5948 15.704 12.8107 15.5727C14.3763 15.4035 15.797 14.8227 17.1348 14.0198C18.8649 12.9815 20.3438 11.6461 21.6854 10.1503C21.8602 9.95533 22.0271 9.75236 22.2389 9.5044C21.4135 8.67942 20.6382 7.84178 19.7963 7.07726C18.3362 5.75072 16.7162 4.66371 14.8385 3.99763C12.9494 3.32733 11.0642 3.3264 9.17466 3.99013C7.5486 4.56153 6.11941 5.46854 4.79569 6.55508C3.70587 7.44944 2.72385 8.45114 1.80184 9.55315L1.80231 9.55221Z" fill="#7F7C77" fill-opacity="0.7"/>
<path d="M11.9993 14.2945C9.37622 14.2935 7.24626 12.1579 7.25845 9.53954C7.27017 6.91975 9.38654 4.80901 12.0007 4.80948C14.6233 4.80948 16.7537 6.94647 16.742 9.56439C16.7303 12.1837 14.6135 14.2954 11.9993 14.2945V14.2945ZM15.1605 9.5747C15.1858 7.84364 13.7932 6.4271 12.0284 6.38867C10.3006 6.3507 8.85217 7.7813 8.8367 9.54048C8.8217 11.2725 10.2275 12.6918 11.9824 12.7153C13.7102 12.7387 15.1347 11.3306 15.16 9.57423L15.1605 9.5747Z" fill="#7F7C77" fill-opacity="0.7"/>
<path d="M21.2603 1.51798L20.0339 0.291611L2.73988 17.5857L3.96624 18.812L21.2603 1.51798Z" fill="#7F7C77" fill-opacity="0.7"/>
</svg>
