<svg width="24" height="16" viewBox="0 0 24 16" fill="none" xmlns="http://www.w3.org/2000/svg">
<path d="M24 7.50889V7.79013C23.8988 7.96404 23.8158 8.15247 23.6934 8.30997C22.9149 9.31026 22.0547 10.237 21.1182 11.0905C19.4902 12.5736 17.7086 13.8191 15.6349 14.6066C14.2605 15.1287 12.8383 15.3767 11.3679 15.2769C9.56606 15.1545 7.91 14.5541 6.358 13.6597C3.99367 12.2966 2.02777 10.4741 0.33515 8.347C0.201559 8.17872 0.110623 7.97669 0 7.79013V7.50889C0.101248 7.33499 0.184215 7.14655 0.306557 6.98906C1.08467 5.98829 1.94481 5.06206 2.88182 4.20849C4.51022 2.72539 6.29191 1.47901 8.36515 0.691992C9.73997 0.170284 11.1617 -0.078149 12.6321 0.0216928C14.4339 0.144034 16.09 0.74496 17.642 1.63885C19.9862 2.98882 21.9361 4.79488 23.6222 6.89578C23.7713 7.0814 23.8753 7.30358 24 7.50842V7.50889ZM1.80231 7.64951C1.88199 7.74373 1.94246 7.82482 2.01277 7.89654C2.74307 8.64512 3.4415 9.42838 4.21304 10.1315C5.69567 11.4819 7.34376 12.5839 9.26091 13.2383C10.4135 13.6316 11.5948 13.8013 12.8107 13.67C14.3763 13.5008 15.797 12.92 17.1348 12.1171C18.8649 11.0788 20.3438 9.74338 21.6854 8.24763C21.8602 8.05263 22.0271 7.84966 22.2389 7.6017C21.4135 6.77672 20.6382 5.93908 19.7963 5.17456C18.3362 3.84802 16.7162 2.76101 14.8385 2.09493C12.9494 1.42463 11.0642 1.4237 9.17466 2.08743C7.5486 2.65883 6.11941 3.56584 4.79569 4.65238C3.70587 5.54674 2.72385 6.54844 1.80184 7.65045L1.80231 7.64951Z" fill="#7F7C77" fill-opacity="0.7"/>
<path d="M11.9993 12.3918C9.37622 12.3908 7.24626 10.2552 7.25845 7.63686C7.27017 5.01707 9.38654 2.90632 12.0007 2.90679C14.6233 2.90679 16.7537 5.04378 16.742 7.6617C16.7303 10.281 14.6135 12.3927 11.9993 12.3918V12.3918ZM15.1605 7.67201C15.1858 5.94095 13.7932 4.52442 12.0284 4.48598C10.3006 4.44801 8.85217 5.87861 8.8367 7.6378C8.8217 9.36979 10.2275 10.7891 11.9824 10.8126C13.7102 10.836 15.1347 9.42792 15.16 7.67154L15.1605 7.67201Z" fill="#7F7C77" fill-opacity="0.7"/>
</svg>
